<?xml version="1.0" encoding="UTF-8" standalone="no"?>
<!-- Created with Inkscape (http://www.inkscape.org/) -->

<svg
   xmlns:dc="http://purl.org/dc/elements/1.1/"
   xmlns:cc="http://creativecommons.org/ns#"
   xmlns:rdf="http://www.w3.org/1999/02/22-rdf-syntax-ns#"
   xmlns:svg="http://www.w3.org/2000/svg"
   xmlns="http://www.w3.org/2000/svg"
   xmlns:sodipodi="http://sodipodi.sourceforge.net/DTD/sodipodi-0.dtd"
   xmlns:inkscape="http://www.inkscape.org/namespaces/inkscape"
   id="svg2"
   version="1.1"
   inkscape:version="0.48.5 r10040"
   width="186"
   height="116"
   sodipodi:docname="logoTransparent.svg">
  <metadata
     id="metadata8">
    <rdf:RDF>
      <cc:Work
         rdf:about="">
        <dc:format>image/svg+xml</dc:format>
        <dc:type
           rdf:resource="http://purl.org/dc/dcmitype/StillImage" />
      </cc:Work>
    </rdf:RDF>
  </metadata>
  <defs
     id="defs6" />
  <sodipodi:namedview
     pagecolor="#ffffff"
     bordercolor="#666666"
     borderopacity="1"
     objecttolerance="10"
     gridtolerance="10"
     guidetolerance="10"
     inkscape:pageopacity="0"
     inkscape:pageshadow="2"
     inkscape:window-width="1366"
     inkscape:window-height="744"
     id="namedview4"
     showgrid="false"
     inkscape:zoom="50.236559"
     inkscape:cx="20.35648"
     inkscape:cy="86.558784"
     inkscape:window-x="0"
     inkscape:window-y="24"
     inkscape:window-maximized="1"
     inkscape:current-layer="svg2" />
  <g
     id="g2987"
     transform="matrix(1.1055189,0,0,1.1842867,-9.2005982,-8.3135534)">
    <path
       style="fill:#d0f8fc"
       d="M 64.896819,101.51104 C 56.244018,97.068021 50.004278,90.109257 46.372258,80.851848 L 43.581511,73.738702 40.827402,77.03768 C 36.990368,81.633827 35,88.171314 35,96.178139 35,99.930162 34.605415,103 34.123144,103 c -0.482271,0 -1.883925,-2.341 -3.114788,-5.202214 -1.879379,-4.368733 -2.166783,-6.4916 -1.793849,-13.25 0.454525,-8.237029 0.469256,-8.276824 8.507323,-22.982844 C 41.865476,53.98395 40.258572,48.707353 32.068172,43 27.103383,39.540364 24,35.023861 24,31.258001 24,29.726275 22.860621,29.063278 18.583286,28.106052 13.795792,27.034658 7.1068501,22.559817 8.3839067,21.28276 c 0.2278153,-0.227815 2.2656843,0.08434 4.5285983,0.69368 4.932614,1.328215 8.220469,0.208735 5.650683,-1.923999 -2.493375,-2.069317 -1.983581,-5.908825 0.879977,-6.627532 1.34374,-0.337258 2.938452,-0.307091 3.543804,0.06704 C 24.654373,14.522459 27,12.068878 27,9.294222 c 0,-3.1742965 2.37855,-2.5163605 2.834676,0.784106 0.184072,1.33192 0.746572,2.849172 1.25,3.371672 C 31.588104,13.9725 32,16.14238 32,18.271956 l 0,3.871957 5.7433,-0.717578 c 5.347204,-0.668089 5.645335,-0.599538 4.322833,0.99398 -1.894792,2.283085 -6.5908,4.653032 -11.93508,6.023311 l -4.368947,1.120202 2.822255,3.35406 c 3.745242,4.450967 7.241611,5.7696 17.417167,6.568772 C 68.612695,41.262505 77,45.073944 77,53.573283 c 0,4.305016 -1.820282,9.143775 -3.713004,9.870081 -2.087358,0.800994 -2.953483,-0.176877 -1.470329,-1.660031 2.993914,-2.993914 0.458038,-10.130256 -4.500926,-12.666293 -8.042964,-4.113209 -16.287414,3.589595 -16.310164,15.238615 -0.01978,10.126086 7.387314,25.853144 16.082396,34.146847 8.239054,7.858728 7.9711,8.226638 -2.191154,3.008538 z M 25,20.318538 c 0,-1.271193 -0.278321,-1.332442 -1.48899,-0.327676 -0.818944,0.679663 -1.23785,1.642104 -0.930901,2.138757 C 23.369014,23.406094 25,22.185441 25,20.318538 z m 60.841431,60.86546 c -0.836451,-1.194201 -1.779417,-1.912679 -2.095479,-1.596616 -0.316063,0.316062 -1.404133,0.130738 -2.417934,-0.411832 -1.380149,-0.738633 -2.434507,-0.507739 -4.19643,0.91898 -2.848447,2.306532 -6.696245,2.482338 -7.517013,0.343452 -0.543379,-1.416023 -0.807838,-1.416023 -2.829495,0 -4.511421,3.159923 -8.233697,0.937551 -8.116902,-4.846168 0.134616,-6.666223 5.009075,-10.09548 8.452469,-5.946443 1.163739,1.402219 1.133532,1.791716 -0.2044,2.635662 -1.390593,0.877163 -1.332686,1.236679 0.506908,3.147111 L 69.5,77.584965 73.319275,74.232499 c 4.479921,-3.932364 6.962518,-3.868556 7.67302,0.197214 C 81.809391,79.10546 84,78.853181 84,74.083333 84,71.8375 84.45,70 85,70 c 0.55,0 1,1.125 1,2.5 0,3.035364 0.406659,3.093341 3.063274,0.436726 1.1348,-1.1348 3.0473,-1.957774 4.25,-1.828829 C 94.515973,71.236841 97.3,70.817824 99.5,70.176748 105.51902,68.422814 115,68.62054 115,70.5 c 0,1.090231 -1.12372,1.5 -4.1135,1.5 -3.93333,0 -4.09317,0.12045 -3.64927,2.75 0.25533,1.5125 0.64391,3.425 0.8635,4.25 0.22188,0.833581 -0.2531,1.5 -1.0691,1.5 -0.9175,0 -1.7687,-1.518663 -2.26892,-4.048063 -0.77714,-3.929724 -0.91683,-4.046657 -4.778453,-4 -2.187853,0.02643 -3.979342,0.357782 -3.981086,0.736327 -0.0017,0.378545 -1.217519,0.603545 -2.701721,0.5 -2.197833,-0.153332 -2.870469,0.368387 -3.625082,2.811736 -2.224935,7.204076 -2.14133,7.101961 -3.834937,4.683998 z M 65.799067,77.781481 c 0.188427,-0.963705 -0.643959,-1.709838 -2.25,-2.016852 -2.61326,-0.499556 -2.973611,-0.03455 -1.979927,2.554952 0.722835,1.883676 3.833791,1.487923 4.229927,-0.5381 z m 10.706481,-0.787612 c 0.998538,-1.103372 1.521041,-2.300613 1.161119,-2.660536 C 76.937438,73.604105 73,76.828575 73,78.154988 c 0,1.459866 1.618842,0.923669 3.505548,-1.161119 z M 64.5,71 c 0.339919,-0.55 0.168034,-1 -0.381966,-1 -0.55,0 -1.278115,0.45 -1.618034,1 -0.339919,0.55 -0.168034,1 0.381966,1 0.55,0 1.278115,-0.45 1.618034,-1 z m 71.93402,8.5 c -0.80532,-4.292739 -2.23631,-4.484042 -3.74012,-0.5 -1.47582,3.909879 -2.46782,3.785323 -4.27364,-0.536595 -1.41316,-3.382166 -1.57347,-3.469498 -3.67148,-2 C 123.5422,77.308532 121.50356,78 120.21848,78 c -1.30303,0 -2.06315,0.442318 -1.71848,1 0.33992,0.55 2.41803,1 4.61803,1 2.41203,0 3.75465,0.396994 3.38197,1 -0.67968,1.09974 -6.41756,1.3526 -8.91821,0.393011 -2.60712,-1.000444 -1.84163,-4.996584 1.49494,-7.804117 3.55256,-2.989283 5.15786,-3.21145 7.35184,-1.017465 C 127.85714,74 128,73.94918 128,72.012412 c 0,-1.171745 0.45,-1.852331 1,-1.512412 0.55,0.339919 1.00168,2.053976 1.00374,3.809017 l 0.004,3.190983 2.11257,-3.465435 2.11258,-3.465435 2.38369,2.771199 c 1.5138,1.759897 2.38368,4.028113 2.38368,6.215435 0,4.48173 -1.72176,4.444312 -2.56598,-0.05576 z M 123,75 c 0.825,-0.533156 1.05,-0.969374 0.5,-0.969374 -0.55,0 -1.675,0.436218 -2.5,0.969374 -0.825,0.533156 -1.05,0.969374 -0.5,0.969374 0.55,0 1.675,-0.436218 2.5,-0.969374 z m 28.59002,7.145654 c -0.30713,-0.496948 -2.49573,-0.685179 -4.86355,-0.418291 -7.57766,0.854113 -8.67408,-4.282379 -1.78301,-8.353035 1.61098,-0.951628 3.19131,-2.775154 3.51185,-4.052281 1.44848,-5.771228 5.08551,0.566755 4.11903,7.177953 l -0.58475,4 1.5339,-3.051339 c 1.88158,-3.742992 6.77202,-6.807032 9.48846,-5.944868 C 164.14842,71.864495 165,71.677562 165,71.067388 165,70.480324 165.45,70 166,70 c 0.55,0 1,1.138472 1,2.529937 l 0,2.529938 2.87688,-2.126972 c 3.04019,-2.247709 6.16656,-2.306314 6.89149,-0.129183 0.30281,0.909382 -0.4255,1.211854 -2.40783,1 -2.55408,-0.272956 -2.97912,0.12677 -4.19614,3.94628 -1.64375,5.15876 -3.83639,5.515373 -4.72685,0.76878 -0.62155,-3.313147 -0.75519,-3.409707 -2.76782,-2 C 161.50662,77.333451 159.50356,78 158.21848,78 c -1.30303,0 -2.06315,0.442318 -1.71848,1 0.33992,0.55 2.50398,1.013684 4.80902,1.030409 2.79496,0.02028 3.69133,0.309857 2.69098,0.869343 -2.33536,1.306142 -11.78634,2.254974 -12.40998,1.245902 z m -3.76967,-3.429192 c 0.66728,-0.804022 0.72366,-1.831394 0.15091,-2.75 -1.11307,-1.785217 -4.28388,-0.204155 -4.79458,2.390721 -0.39287,1.996184 3.06324,2.263581 4.64367,0.359279 z M 44.690941,36.548084 c -2.538091,-2.538091 -2.991141,-5.440976 -1.261219,-8.08117 3.120653,-4.762719 9.640603,-4.042344 11.667626,1.289131 2.065269,5.43207 -6.30396,10.894486 -10.406407,6.792039 z"
       id="path3001"
       inkscape:connector-curvature="0" />
    <path
       style="fill:#a2def1"
       d="M 65.211284,101.46931 C 55.874115,96.798117 50.049273,90.335095 46.20665,80.382498 l -2.90586,-7.526333 -3.19237,4.974877 C 36.024577,84.195159 35,87.888059 35,96.243398 35,99.959529 34.605415,103 34.123144,103 c -0.482271,0 -1.889252,-2.35338 -3.126625,-5.229729 -1.92532,-4.475527 -2.175628,-6.418115 -1.735668,-13.470135 0.415117,-6.653825 1.055742,-9.160704 3.327287,-13.02027 5.803328,-9.860395 7.41088,-13.474298 7.376427,-16.582781 -0.0495,-4.466037 -1.692146,-6.958459 -7.464565,-11.326147 -6.005141,-4.543776 -7.205405,-5.99231 -8.053864,-9.719775 -0.87412,-3.840195 0.966364,-5.617434 2.619159,-2.529158 2.957974,5.527025 7.315822,7.452006 18.936233,8.364655 24.269501,1.906087 31.892259,5.891326 30.74458,16.073508 C 76.269134,59.79187 73.807887,64 71.809829,64 71.325721,64 71.395465,63.129584 71.964816,62.065741 75.439424,55.573378 70.068075,48 61.988818,48 56.237975,48 51.02235,55.76683 51.005577,64.355655 c -0.01983,10.153547 7.386259,25.852137 16.131457,34.193643 3.278598,3.127252 5.784162,5.862842 5.567919,6.079082 -0.216242,0.21624 -3.588393,-1.20534 -7.493669,-3.15907 z M 85.841431,81.183998 c -0.836451,-1.194201 -1.779417,-1.912679 -2.095479,-1.596616 -0.316063,0.316062 -1.404133,0.130738 -2.417934,-0.411832 -1.380149,-0.738633 -2.434507,-0.507739 -4.19643,0.91898 -2.848447,2.306532 -6.696245,2.482338 -7.517013,0.343452 -0.543379,-1.416023 -0.807838,-1.416023 -2.829495,0 -4.511421,3.159923 -8.233697,0.937551 -8.116902,-4.846168 0.134616,-6.666223 5.009075,-10.09548 8.452469,-5.946443 1.163739,1.402219 1.133532,1.791716 -0.2044,2.635662 -1.390593,0.877163 -1.332686,1.236679 0.506908,3.147111 L 69.5,77.584965 73.319275,74.232499 c 4.479921,-3.932364 6.962518,-3.868556 7.67302,0.197214 C 81.809391,79.10546 84,78.853181 84,74.083333 84,71.8375 84.45,70 85,70 c 0.55,0 1,1.125 1,2.5 0,3.035364 0.406659,3.093341 3.063274,0.436726 1.1348,-1.1348 3.0473,-1.957774 4.25,-1.828829 C 94.515973,71.236841 97.3,70.817824 99.5,70.176748 105.51902,68.422814 115,68.62054 115,70.5 c 0,1.090231 -1.12372,1.5 -4.1135,1.5 -3.93333,0 -4.09317,0.12045 -3.64927,2.75 0.25533,1.5125 0.64391,3.425 0.8635,4.25 0.22188,0.833581 -0.2531,1.5 -1.0691,1.5 -0.9175,0 -1.7687,-1.518663 -2.26892,-4.048063 -0.77714,-3.929724 -0.91683,-4.046657 -4.778453,-4 -2.187853,0.02643 -3.979342,0.357782 -3.981086,0.736327 -0.0017,0.378545 -1.217519,0.603545 -2.701721,0.5 -2.197833,-0.153332 -2.870469,0.368387 -3.625082,2.811736 -2.224935,7.204076 -2.14133,7.101961 -3.834937,4.683998 z M 65.799067,77.781481 c 0.188427,-0.963705 -0.643959,-1.709838 -2.25,-2.016852 -2.61326,-0.499556 -2.973611,-0.03455 -1.979927,2.554952 0.722835,1.883676 3.833791,1.487923 4.229927,-0.5381 z m 10.706481,-0.787612 c 0.998538,-1.103372 1.521041,-2.300613 1.161119,-2.660536 C 76.937438,73.604105 73,76.828575 73,78.154988 c 0,1.459866 1.618842,0.923669 3.505548,-1.161119 z M 64.5,71 c 0.339919,-0.55 0.168034,-1 -0.381966,-1 -0.55,0 -1.278115,0.45 -1.618034,1 -0.339919,0.55 -0.168034,1 0.381966,1 0.55,0 1.278115,-0.45 1.618034,-1 z m 71.93402,8.5 c -0.80532,-4.292739 -2.23631,-4.484042 -3.74012,-0.5 -1.47582,3.909879 -2.46782,3.785323 -4.27364,-0.536595 -1.41316,-3.382166 -1.57347,-3.469498 -3.67148,-2 C 123.5422,77.308532 121.50356,78 120.21848,78 c -1.30303,0 -2.06315,0.442318 -1.71848,1 0.33992,0.55 2.41803,1 4.61803,1 2.41203,0 3.75465,0.396994 3.38197,1 -0.67968,1.09974 -6.41756,1.3526 -8.91821,0.393011 -2.60712,-1.000444 -1.84163,-4.996584 1.49494,-7.804117 3.55256,-2.989283 5.15786,-3.21145 7.35184,-1.017465 C 127.85714,74 128,73.94918 128,72.012412 c 0,-1.171745 0.45,-1.852331 1,-1.512412 0.55,0.339919 1.00168,2.053976 1.00374,3.809017 l 0.004,3.190983 2.11257,-3.465435 2.11258,-3.465435 2.38369,2.771199 c 1.5138,1.759897 2.38368,4.028113 2.38368,6.215435 0,4.48173 -1.72176,4.444312 -2.56598,-0.05576 z M 123,75 c 0.825,-0.533156 1.05,-0.969374 0.5,-0.969374 -0.55,0 -1.675,0.436218 -2.5,0.969374 -0.825,0.533156 -1.05,0.969374 -0.5,0.969374 0.55,0 1.675,-0.436218 2.5,-0.969374 z m 28.59002,7.145654 c -0.30713,-0.496948 -2.49573,-0.685179 -4.86355,-0.418291 -7.57766,0.854113 -8.67408,-4.282379 -1.78301,-8.353035 1.61098,-0.951628 3.19131,-2.775154 3.51185,-4.052281 1.44848,-5.771228 5.08551,0.566755 4.11903,7.177953 l -0.58475,4 1.5339,-3.051339 c 1.88158,-3.742992 6.77202,-6.807032 9.48846,-5.944868 C 164.14842,71.864495 165,71.677562 165,71.067388 165,70.480324 165.45,70 166,70 c 0.55,0 1,1.138472 1,2.529937 l 0,2.529938 2.87688,-2.126972 c 3.04019,-2.247709 6.16656,-2.306314 6.89149,-0.129183 0.30281,0.909382 -0.4255,1.211854 -2.40783,1 -2.55408,-0.272956 -2.97912,0.12677 -4.19614,3.94628 -1.64375,5.15876 -3.83639,5.515373 -4.72685,0.76878 -0.62155,-3.313147 -0.75519,-3.409707 -2.76782,-2 C 161.50662,77.333451 159.50356,78 158.21848,78 c -1.30303,0 -2.06315,0.442318 -1.71848,1 0.33992,0.55 2.50398,1.013684 4.80902,1.030409 2.79496,0.02028 3.69133,0.309857 2.69098,0.869343 -2.33536,1.306142 -11.78634,2.254974 -12.40998,1.245902 z m -3.76967,-3.429192 c 0.66728,-0.804022 0.72366,-1.831394 0.15091,-2.75 -1.11307,-1.785217 -4.28388,-0.204155 -4.79458,2.390721 -0.39287,1.996184 3.06324,2.263581 4.64367,0.359279 z M 44.690941,36.548084 c -2.538091,-2.538091 -2.991141,-5.440976 -1.261219,-8.08117 3.120653,-4.762719 9.640603,-4.042344 11.667626,1.289131 2.065269,5.43207 -6.30396,10.894486 -10.406407,6.792039 z M 22,27.986176 C 16.593262,27.325101 10.728862,24.988341 9.5043952,23.007112 8.7590264,21.80108 9.3751568,21.786291 14.148441,22.89564 c 4.999007,1.16181 6.535419,0.0777 4.43435,-3.12894 C 16.404304,16.441908 17.473175,14 21.106989,14 c 3.23942,0 3.894757,2.410765 1.643011,6.044081 -1.030432,1.662659 -0.986519,2.182041 0.25,2.956843 1.241655,0.778021 1.553391,0.126903 1.809995,-3.780512 0.170498,-2.596227 0.732998,-5.147912 1.25,-5.670412 C 26.576998,13.0275 27,11.591558 27,10.359017 27,9.1264763 27.45,7.8399187 28,7.5 c 0.55,-0.3399187 1,0.3243561 1,1.4761663 0,1.1518097 0.732465,3.2120827 1.6277,4.5783837 1.112596,1.698038 1.442745,3.623924 1.043252,6.085709 l -0.584447,3.601525 3.869327,-0.618731 c 2.12813,-0.340301 4.657487,-0.921175 5.620793,-1.29083 2.868273,-1.10066 0.702422,1.468612 -3.410685,4.045975 C 32.609363,28.233449 29.041016,28.847072 22,27.986176 z"
       id="path2999"
       inkscape:connector-curvature="0" />
    <path
       style="fill:#71cbf2"
       d="M 65.211284,101.46931 C 55.874115,96.798117 50.049273,90.335095 46.20665,80.382498 l -2.90586,-7.526333 -3.19237,4.974877 C 36.024577,84.195159 35,87.888059 35,96.243398 35,99.959529 34.605415,103 34.123144,103 c -0.482271,0 -1.889252,-2.35338 -3.126625,-5.229729 -1.92532,-4.475527 -2.175628,-6.418115 -1.735668,-13.470135 0.415117,-6.653825 1.055742,-9.160704 3.327287,-13.02027 C 42.559591,54.337438 42.484594,50.258522 32.068172,43 26.27913,38.965995 23.286432,33.914226 24.746833,30.641345 25.65405,28.608195 25.773926,28.662141 27.419326,31.843994 29.740625,36.33289 35.450984,38.685412 46,39.498755 70.220035,41.366152 77.894123,45.375007 76.746108,55.560168 76.269134,59.79187 73.807887,64 71.809829,64 71.325721,64 71.395465,63.129584 71.964816,62.065741 75.439424,55.573378 70.068075,48 61.988818,48 56.237975,48 51.02235,55.76683 51.005577,64.355655 c -0.01983,10.153547 7.386259,25.852137 16.131457,34.193643 3.278598,3.127252 5.784162,5.862842 5.567919,6.079082 -0.216242,0.21624 -3.588393,-1.20534 -7.493669,-3.15907 z M 85.841431,81.183998 c -0.836451,-1.194201 -1.779417,-1.912679 -2.095479,-1.596616 -0.316063,0.316062 -1.404133,0.130738 -2.417934,-0.411832 -1.380149,-0.738633 -2.434507,-0.507739 -4.19643,0.91898 -2.848447,2.306532 -6.696245,2.482338 -7.517013,0.343452 -0.543379,-1.416023 -0.807838,-1.416023 -2.829495,0 -4.511421,3.159923 -8.233697,0.937551 -8.116902,-4.846168 0.134616,-6.666223 5.009075,-10.09548 8.452469,-5.946443 1.163739,1.402219 1.133532,1.791716 -0.2044,2.635662 -1.390593,0.877163 -1.332686,1.236679 0.506908,3.147111 L 69.5,77.584965 73.319275,74.232499 c 4.479921,-3.932364 6.962518,-3.868556 7.67302,0.197214 C 81.809391,79.10546 84,78.853181 84,74.083333 84,71.8375 84.45,70 85,70 c 0.55,0 1,1.125 1,2.5 0,3.035364 0.406659,3.093341 3.063274,0.436726 1.1348,-1.1348 3.0473,-1.957774 4.25,-1.828829 C 94.515973,71.236841 97.3,70.817824 99.5,70.176748 105.51902,68.422814 115,68.62054 115,70.5 c 0,1.090231 -1.12372,1.5 -4.1135,1.5 -3.93333,0 -4.09317,0.12045 -3.64927,2.75 0.25533,1.5125 0.64391,3.425 0.8635,4.25 0.22188,0.833581 -0.2531,1.5 -1.0691,1.5 -0.9175,0 -1.7687,-1.518663 -2.26892,-4.048063 -0.77714,-3.929724 -0.91683,-4.046657 -4.778453,-4 -2.187853,0.02643 -3.979342,0.357782 -3.981086,0.736327 -0.0017,0.378545 -1.217519,0.603545 -2.701721,0.5 -2.197833,-0.153332 -2.870469,0.368387 -3.625082,2.811736 -2.224935,7.204076 -2.14133,7.101961 -3.834937,4.683998 z M 65.799067,77.781481 c 0.188427,-0.963705 -0.643959,-1.709838 -2.25,-2.016852 -2.61326,-0.499556 -2.973611,-0.03455 -1.979927,2.554952 0.722835,1.883676 3.833791,1.487923 4.229927,-0.5381 z m 10.706481,-0.787612 c 0.998538,-1.103372 1.521041,-2.300613 1.161119,-2.660536 C 76.937438,73.604105 73,76.828575 73,78.154988 c 0,1.459866 1.618842,0.923669 3.505548,-1.161119 z M 64.5,71 c 0.339919,-0.55 0.168034,-1 -0.381966,-1 -0.55,0 -1.278115,0.45 -1.618034,1 -0.339919,0.55 -0.168034,1 0.381966,1 0.55,0 1.278115,-0.45 1.618034,-1 z m 71.93402,8.5 c -0.80532,-4.292739 -2.23631,-4.484042 -3.74012,-0.5 -1.47582,3.909879 -2.46782,3.785323 -4.27364,-0.536595 -1.41316,-3.382166 -1.57347,-3.469498 -3.67148,-2 C 123.5422,77.308532 121.50356,78 120.21848,78 c -1.30303,0 -2.06315,0.442318 -1.71848,1 0.33992,0.55 2.41803,1 4.61803,1 2.41203,0 3.75465,0.396994 3.38197,1 -0.67968,1.09974 -6.41756,1.3526 -8.91821,0.393011 -2.60712,-1.000444 -1.84163,-4.996584 1.49494,-7.804117 3.55256,-2.989283 5.15786,-3.21145 7.35184,-1.017465 C 127.85714,74 128,73.94918 128,72.012412 c 0,-1.171745 0.45,-1.852331 1,-1.512412 0.55,0.339919 1.00168,2.053976 1.00374,3.809017 l 0.004,3.190983 2.11257,-3.465435 2.11258,-3.465435 2.38369,2.771199 c 1.5138,1.759897 2.38368,4.028113 2.38368,6.215435 0,4.48173 -1.72176,4.444312 -2.56598,-0.05576 z M 123,75 c 0.825,-0.533156 1.05,-0.969374 0.5,-0.969374 -0.55,0 -1.675,0.436218 -2.5,0.969374 -0.825,0.533156 -1.05,0.969374 -0.5,0.969374 0.55,0 1.675,-0.436218 2.5,-0.969374 z m 28.59002,7.145654 c -0.30713,-0.496948 -2.49573,-0.685179 -4.86355,-0.418291 -7.57766,0.854113 -8.67408,-4.282379 -1.78301,-8.353035 1.61098,-0.951628 3.19131,-2.775154 3.51185,-4.052281 1.44848,-5.771228 5.08551,0.566755 4.11903,7.177953 l -0.58475,4 1.5339,-3.051339 c 1.88158,-3.742992 6.77202,-6.807032 9.48846,-5.944868 C 164.14842,71.864495 165,71.677562 165,71.067388 165,70.480324 165.45,70 166,70 c 0.55,0 1,1.138472 1,2.529937 l 0,2.529938 2.87688,-2.126972 c 3.04019,-2.247709 6.16656,-2.306314 6.89149,-0.129183 0.30281,0.909382 -0.4255,1.211854 -2.40783,1 -2.55408,-0.272956 -2.97912,0.12677 -4.19614,3.94628 -1.64375,5.15876 -3.83639,5.515373 -4.72685,0.76878 -0.62155,-3.313147 -0.75519,-3.409707 -2.76782,-2 C 161.50662,77.333451 159.50356,78 158.21848,78 c -1.30303,0 -2.06315,0.442318 -1.71848,1 0.33992,0.55 2.50398,1.013684 4.80902,1.030409 2.79496,0.02028 3.69133,0.309857 2.69098,0.869343 -2.33536,1.306142 -11.78634,2.254974 -12.40998,1.245902 z m -3.76967,-3.429192 c 0.66728,-0.804022 0.72366,-1.831394 0.15091,-2.75 -1.11307,-1.785217 -4.28388,-0.204155 -4.79458,2.390721 -0.39287,1.996184 3.06324,2.263581 4.64367,0.359279 z M 44.690941,36.548084 c -2.538091,-2.538091 -2.991141,-5.440976 -1.261219,-8.08117 3.120653,-4.762719 9.640603,-4.042344 11.667626,1.289131 2.065269,5.43207 -6.30396,10.894486 -10.406407,6.792039 z M 26,28.265621 C 16.662053,27.173664 14.68856,26.633899 12.231263,24.499769 L 9.5,22.127702 l 4.409194,0.976955 c 5.426956,1.202463 7.063823,0.08196 5.137724,-3.51699 -1.7328,-3.237766 -0.688569,-5.818195 2.188396,-5.407804 2.877782,0.410508 3.451741,3.403468 1.142102,5.95559 -1.543762,1.705839 -1.591488,2.1172 -0.337653,2.910284 3.017232,1.908477 4.081494,1.117539 3.398077,-2.525385 -0.442977,-2.361272 -0.06649,-4.897186 1.171391,-7.89009 l 1.824178,-4.4104426 1.268239,3.6400906 c 0.697532,2.002049 1.275015,5.390271 1.283296,7.529381 L 31,23.278582 36.03226,22.682585 c 5.877848,-0.696144 5.796902,0.254108 -0.23395,2.746412 C 33.43424,26.40597 30.825,27.509659 30,27.881639 c -0.825,0.371979 -2.625,0.544772 -4,0.383982 z"
       id="path2997"
       inkscape:connector-curvature="0" />
    <path
       style="fill:#a9aaab"
       d="M 65.211284,101.46931 C 55.874115,96.798117 50.049273,90.335095 46.20665,80.382498 l -2.90586,-7.526333 -3.19237,4.974877 C 36.024577,84.195159 35,87.888059 35,96.243398 35,99.959529 34.605415,103 34.123144,103 c -0.482271,0 -1.889252,-2.35338 -3.126625,-5.229729 -1.92532,-4.475527 -2.175628,-6.418115 -1.735668,-13.470135 0.415117,-6.653825 1.055742,-9.160704 3.327287,-13.02027 C 42.559591,54.337438 42.484594,50.258522 32.068172,43 26.27913,38.965995 23.286432,33.914226 24.746833,30.641345 25.65405,28.608195 25.773926,28.662141 27.419326,31.843994 29.740625,36.33289 35.450984,38.685412 46,39.498755 70.220035,41.366152 77.894123,45.375007 76.746108,55.560168 76.269134,59.79187 73.807887,64 71.809829,64 71.325721,64 71.395465,63.129584 71.964816,62.065741 75.439424,55.573378 70.068075,48 61.988818,48 56.237975,48 51.02235,55.76683 51.005577,64.355655 c -0.01983,10.153547 7.386259,25.852137 16.131457,34.193643 3.278598,3.127252 5.784162,5.862842 5.567919,6.079082 -0.216242,0.21624 -3.588393,-1.20534 -7.493669,-3.15907 z M 85.841431,81.183998 c -0.836451,-1.194201 -1.779417,-1.912679 -2.095479,-1.596616 -0.316063,0.316062 -1.404133,0.130738 -2.417934,-0.411832 -1.380149,-0.738633 -2.434507,-0.507739 -4.19643,0.91898 -2.848447,2.306532 -6.696245,2.482338 -7.517013,0.343452 -0.543379,-1.416023 -0.807838,-1.416023 -2.829495,0 -4.511421,3.159923 -8.233697,0.937551 -8.116902,-4.846168 0.134616,-6.666223 5.009075,-10.09548 8.452469,-5.946443 1.163739,1.402219 1.133532,1.791716 -0.2044,2.635662 -1.390593,0.877163 -1.332686,1.236679 0.506908,3.147111 L 69.5,77.584965 73.319275,74.232499 c 4.479921,-3.932364 6.962518,-3.868556 7.67302,0.197214 C 81.809391,79.10546 84,78.853181 84,74.083333 84,71.8375 84.45,70 85,70 c 0.55,0 1,1.125 1,2.5 0,3.035364 0.406659,3.093341 3.063274,0.436726 1.1348,-1.1348 3.0473,-1.957774 4.25,-1.828829 C 94.515973,71.236841 97.3,70.817824 99.5,70.176748 105.51902,68.422814 115,68.62054 115,70.5 c 0,1.090231 -1.12372,1.5 -4.1135,1.5 -3.93333,0 -4.09317,0.12045 -3.64927,2.75 0.25533,1.5125 0.64391,3.425 0.8635,4.25 0.22188,0.833581 -0.2531,1.5 -1.0691,1.5 -0.9175,0 -1.7687,-1.518663 -2.26892,-4.048063 -0.77714,-3.929724 -0.91683,-4.046657 -4.778453,-4 -2.187853,0.02643 -3.979342,0.357782 -3.981086,0.736327 -0.0017,0.378545 -1.217519,0.603545 -2.701721,0.5 -2.197833,-0.153332 -2.870469,0.368387 -3.625082,2.811736 -2.224935,7.204076 -2.14133,7.101961 -3.834937,4.683998 z M 65.799067,77.781481 c 0.188427,-0.963705 -0.643959,-1.709838 -2.25,-2.016852 -2.61326,-0.499556 -2.973611,-0.03455 -1.979927,2.554952 0.722835,1.883676 3.833791,1.487923 4.229927,-0.5381 z m 10.706481,-0.787612 c 0.998538,-1.103372 1.521041,-2.300613 1.161119,-2.660536 C 76.937438,73.604105 73,76.828575 73,78.154988 c 0,1.459866 1.618842,0.923669 3.505548,-1.161119 z M 64.5,71 c 0.339919,-0.55 0.168034,-1 -0.381966,-1 -0.55,0 -1.278115,0.45 -1.618034,1 -0.339919,0.55 -0.168034,1 0.381966,1 0.55,0 1.278115,-0.45 1.618034,-1 z m 71.93402,8.5 c -0.80532,-4.292739 -2.23631,-4.484042 -3.74012,-0.5 -1.47582,3.909879 -2.46782,3.785323 -4.27364,-0.536595 -1.41316,-3.382166 -1.57347,-3.469498 -3.67148,-2 C 123.5422,77.308532 121.50356,78 120.21848,78 c -1.30303,0 -2.06315,0.442318 -1.71848,1 0.33992,0.55 2.41803,1 4.61803,1 2.41203,0 3.75465,0.396994 3.38197,1 -0.67968,1.09974 -6.41756,1.3526 -8.91821,0.393011 -2.60712,-1.000444 -1.84163,-4.996584 1.49494,-7.804117 3.55256,-2.989283 5.15786,-3.21145 7.35184,-1.017465 C 127.85714,74 128,73.94918 128,72.012412 c 0,-1.171745 0.45,-1.852331 1,-1.512412 0.55,0.339919 1.00168,2.053976 1.00374,3.809017 l 0.004,3.190983 2.11257,-3.465435 2.11258,-3.465435 2.38369,2.771199 c 1.5138,1.759897 2.38368,4.028113 2.38368,6.215435 0,4.48173 -1.72176,4.444312 -2.56598,-0.05576 z M 123,75 c 0.825,-0.533156 1.05,-0.969374 0.5,-0.969374 -0.55,0 -1.675,0.436218 -2.5,0.969374 -0.825,0.533156 -1.05,0.969374 -0.5,0.969374 0.55,0 1.675,-0.436218 2.5,-0.969374 z m 28.59002,7.145654 c -0.30713,-0.496948 -2.49573,-0.685179 -4.86355,-0.418291 -7.57766,0.854113 -8.67408,-4.282379 -1.78301,-8.353035 1.61098,-0.951628 3.19131,-2.775154 3.51185,-4.052281 1.44848,-5.771228 5.08551,0.566755 4.11903,7.177953 l -0.58475,4 1.5339,-3.051339 c 1.88158,-3.742992 6.77202,-6.807032 9.48846,-5.944868 C 164.14842,71.864495 165,71.677562 165,71.067388 165,70.480324 165.45,70 166,70 c 0.55,0 1,1.138472 1,2.529937 l 0,2.529938 2.87688,-2.126972 c 3.04019,-2.247709 6.16656,-2.306314 6.89149,-0.129183 0.30281,0.909382 -0.4255,1.211854 -2.40783,1 -2.55408,-0.272956 -2.97912,0.12677 -4.19614,3.94628 -1.64375,5.15876 -3.83639,5.515373 -4.72685,0.76878 -0.62155,-3.313147 -0.75519,-3.409707 -2.76782,-2 C 161.50662,77.333451 159.50356,78 158.21848,78 c -1.30303,0 -2.06315,0.442318 -1.71848,1 0.33992,0.55 2.50398,1.013684 4.80902,1.030409 2.79496,0.02028 3.69133,0.309857 2.69098,0.869343 -2.33536,1.306142 -11.78634,2.254974 -12.40998,1.245902 z m -3.76967,-3.429192 c 0.66728,-0.804022 0.72366,-1.831394 0.15091,-2.75 -1.11307,-1.785217 -4.28388,-0.204155 -4.79458,2.390721 -0.39287,1.996184 3.06324,2.263581 4.64367,0.359279 z M 44.690941,36.548084 c -2.538091,-2.538091 -2.991141,-5.440976 -1.261219,-8.08117 3.120653,-4.762719 9.640603,-4.042344 11.667626,1.289131 2.065269,5.43207 -6.30396,10.894486 -10.406407,6.792039 z M 22.776216,27.81869 C 17.128443,27.088304 11.715719,24.967074 10.506263,23.010135 10.09143,22.338919 10.755024,22.336561 12.507951,23.003023 16.735919,24.610493 20,24.260638 20,22.2 c 0,-0.99 -0.492201,-2.292201 -1.09378,-2.89378 -1.717468,-1.717468 -0.636426,-4.573906 1.875703,-4.956176 3.027738,-0.460729 3.874918,1.998544 1.786468,5.185922 C 20.68899,22.404295 21.2252,24 24.068455,24 c 1.651861,0 1.927085,-0.650568 1.79797,-4.25 -0.08385,-2.3375 0.567152,-6.05 1.446668,-8.25 C 28.742585,7.924307 28.91687,7.7854507 28.956107,10.190983 28.980248,11.671024 29.45,13.160081 30,13.5 c 0.55,0.339919 1,2.871801 1,5.626405 0,4.290917 0.250689,4.937786 1.75,4.51564 0.9625,-0.271002 3.325,-0.783172 5.25,-1.138154 l 3.5,-0.645423 -3,2.064177 c -1.65,1.135297 -3.45,2.069914 -4,2.076927 -0.55,0.007 -2.125,0.585731 -3.5,1.286042 -1.736286,0.88432 -4.248534,1.047168 -8.223784,0.533076 z"
       id="path2995"
       inkscape:connector-curvature="0" />
    <path
       style="fill:#59afd4"
       d="M 65.211284,101.46931 C 55.830982,96.776538 50.052469,90.343375 46.158663,80.258208 l -2.953848,-7.650624 -3.127041,4.930832 C 36.162686,83.711868 34.875,88.426878 34.875,96.588966 34.875,100.11503 34.50854,103 34.060644,103 33.612748,103 32.232413,100.64318 30.993231,97.762629 29.048152,93.24117 28.823256,91.447885 29.347967,84.643566 29.885672,77.670748 30.534883,75.687603 34.97788,67.445867 42.147904,54.145507 41.784495,50.600807 32.5,43.27658 25.346518,37.633438 23.370759,34.636167 25.032244,31.947828 c 0.664716,-1.075533 1.286953,-0.811752 2.888759,1.224614 2.868135,3.646243 8.330353,5.549483 18.135233,6.31899 22.906657,1.797762 30.949477,5.562099 30.940026,14.481074 C 76.992378,57.638053 73.809501,64 71.979515,64 71.251404,64 71.2469,63.407181 71.964816,62.065741 75.439424,55.573378 70.068075,48 61.988818,48 56.237975,48 51.02235,55.76683 51.005577,64.355655 c -0.02295,11.753651 10.112507,31.019467 19.934091,37.891375 4.592527,3.21327 1.376315,2.77662 -5.728384,-0.77772 z M 85.841431,81.183998 c -0.836451,-1.194201 -1.779417,-1.912679 -2.095479,-1.596616 -0.316063,0.316062 -1.404133,0.130738 -2.417934,-0.411832 -1.380149,-0.738633 -2.434507,-0.507739 -4.19643,0.91898 -2.848447,2.306532 -6.696245,2.482338 -7.517013,0.343452 -0.543379,-1.416023 -0.807838,-1.416023 -2.829495,0 -4.511421,3.159923 -8.233697,0.937551 -8.116902,-4.846168 0.134616,-6.666223 5.009075,-10.09548 8.452469,-5.946443 1.163739,1.402219 1.133532,1.791716 -0.2044,2.635662 -1.390888,0.877349 -1.333075,1.239537 0.506908,3.175718 L 69.5,77.642179 72.517217,74.850545 c 1.659469,-1.535398 4.117796,-2.917389 5.462949,-3.071089 2.003043,-0.228873 2.542942,0.248627 2.982783,2.638046 C 81.824638,79.098584 84,78.859227 84,74.083333 84,71.8375 84.45,70 85,70 c 0.55,0 1,1.125 1,2.5 0,3.035364 0.406659,3.093341 3.063274,0.436726 1.1348,-1.1348 3.0473,-1.957774 4.25,-1.828829 C 94.515973,71.236841 97.3,70.817824 99.5,70.176748 105.51902,68.422814 115,68.62054 115,70.5 c 0,1.090231 -1.12372,1.5 -4.1135,1.5 -3.93333,0 -4.09317,0.12045 -3.64927,2.75 0.25533,1.5125 0.64391,3.425 0.8635,4.25 0.22188,0.833581 -0.2531,1.5 -1.0691,1.5 -0.9175,0 -1.7687,-1.518663 -2.26892,-4.048063 -0.77714,-3.929724 -0.91683,-4.046657 -4.778453,-4 -2.187853,0.02643 -3.979342,0.357782 -3.981086,0.736327 -0.0017,0.378545 -1.217519,0.603545 -2.701721,0.5 -2.197833,-0.153332 -2.870469,0.368387 -3.625082,2.811736 -2.224935,7.204076 -2.14133,7.101961 -3.834937,4.683998 z M 65.799067,77.781481 c 0.188427,-0.963705 -0.643959,-1.709838 -2.25,-2.016852 -2.61326,-0.499556 -2.973611,-0.03455 -1.979927,2.554952 0.722835,1.883676 3.833791,1.487923 4.229927,-0.5381 z M 76.505548,76.993869 C 79.318689,73.885383 77.281838,73.263616 74.242424,76.30303 72.266889,78.278565 71.966038,79 73.11774,79 c 0.864757,0 2.38927,-0.902759 3.387808,-2.006131 z M 64.5,71 c 0.339919,-0.55 0.168034,-1 -0.381966,-1 -0.55,0 -1.278115,0.45 -1.618034,1 -0.339919,0.55 -0.168034,1 0.381966,1 0.55,0 1.278115,-0.45 1.618034,-1 z m 71.85713,7.831917 -0.6665,-4.168082 -1.84532,2.278866 C 132.83039,78.196078 132,79.846715 132,80.610784 c 0,2.640675 -2.10735,1.376537 -3.57974,-2.147379 -1.41316,-3.382166 -1.57347,-3.469498 -3.67148,-2 C 123.5422,77.308532 121.50356,78 120.21848,78 c -1.30303,0 -2.06315,0.442318 -1.71848,1 0.33992,0.55 2.41803,1 4.61803,1 2.41203,0 3.75465,0.396994 3.38197,1 -0.67968,1.09974 -6.41756,1.3526 -8.91821,0.393011 -2.60712,-1.000444 -1.84163,-4.996584 1.49494,-7.804117 3.55256,-2.989283 5.15786,-3.21145 7.35184,-1.017465 C 127.85714,74 128,73.94918 128,72.012412 c 0,-1.171745 0.45,-1.852331 1,-1.512412 0.55,0.339919 1.00168,2.053976 1.00374,3.809017 l 0.004,3.190983 2.11257,-3.465435 2.11258,-3.465435 2.38369,2.771199 c 1.5138,1.759897 2.38368,4.028113 2.38368,6.215435 0,4.812284 -1.83811,4.308851 -2.64287,-0.723847 z M 123,75 c 0.825,-0.533156 1.05,-0.969374 0.5,-0.969374 -0.55,0 -1.675,0.436218 -2.5,0.969374 -0.825,0.533156 -1.05,0.969374 -0.5,0.969374 0.55,0 1.675,-0.436218 2.5,-0.969374 z m 28.59002,7.145654 c -0.30713,-0.496948 -2.49573,-0.685179 -4.86355,-0.418291 -7.57766,0.854113 -8.67408,-4.282379 -1.78301,-8.353035 1.61098,-0.951628 3.19131,-2.775154 3.51185,-4.052281 1.43965,-5.73602 5.06483,0.517765 4.1609,7.177953 l -0.54289,4 1.57346,-3.099445 c 1.92215,-3.786278 6.6451,-6.760079 9.36517,-5.896762 C 164.14842,71.864495 165,71.677562 165,71.067388 165,70.480324 165.45,70 166,70 c 0.55,0 1,1.138472 1,2.529937 l 0,2.529938 2.87688,-2.126972 c 3.04019,-2.247709 6.16656,-2.306314 6.89149,-0.129183 0.30281,0.909382 -0.4255,1.211854 -2.40783,1 -2.55408,-0.272956 -2.97912,0.12677 -4.19614,3.94628 -1.64375,5.15876 -3.83639,5.515373 -4.72685,0.76878 -0.62155,-3.313147 -0.75519,-3.409707 -2.76782,-2 C 161.50662,77.333451 159.50356,78 158.21848,78 c -1.30303,0 -2.06315,0.442318 -1.71848,1 0.33992,0.55 2.50398,1.013684 4.80902,1.030409 2.79496,0.02028 3.69133,0.309857 2.69098,0.869343 -2.33536,1.306142 -11.78634,2.254974 -12.40998,1.245902 z m -3.76967,-3.429192 c 0.66728,-0.804022 0.72366,-1.831394 0.15091,-2.75 -1.11307,-1.785217 -4.28388,-0.204155 -4.79458,2.390721 -0.39287,1.996184 3.06324,2.263581 4.64367,0.359279 z M 44.690941,36.548084 c -2.538091,-2.538091 -2.991141,-5.440976 -1.261219,-8.08117 3.120653,-4.762719 9.640603,-4.042344 11.667626,1.289131 2.065269,5.43207 -6.30396,10.894486 -10.406407,6.792039 z M 16.624794,26.530902 C 10.443667,24.327646 9.7741173,22.870235 15.290402,23.626326 19.503669,24.203818 20,24.067827 20,22.335924 c 0,-1.064758 -0.492201,-2.428125 -1.09378,-3.029704 -1.717468,-1.717468 -0.636426,-4.573906 1.875703,-4.956176 3.027738,-0.460729 3.874918,1.998544 1.786468,5.185922 C 20.68899,22.404295 21.2252,24 24.068455,24 c 1.651861,0 1.927085,-0.650568 1.79797,-4.25 -0.08385,-2.3375 0.567152,-6.05 1.446668,-8.25 C 28.742585,7.924307 28.91687,7.7854507 28.956107,10.190983 28.980248,11.671024 29.45,13.160081 30,13.5 c 0.55,0.339919 1,2.871801 1,5.626405 0,4.290917 0.250689,4.937786 1.75,4.51564 0.9625,-0.271002 3.325,-0.790404 5.25,-1.154227 3.420867,-0.64654 3.449932,-0.624899 1.285514,0.957172 -5.938628,4.340811 -15.490812,5.641617 -22.66072,3.085912 z"
       id="path2993"
       inkscape:connector-curvature="0" />
    <path
       style="fill:#088ac7"
       d="M 65.211284,101.46931 C 55.830982,96.776538 50.052469,90.343375 46.158663,80.258208 l -2.953848,-7.650624 -3.127041,4.930832 C 36.162686,83.711868 34.875,88.426878 34.875,96.588966 34.875,100.11503 34.50854,103 34.060644,103 33.612748,103 32.232413,100.64318 30.993231,97.762629 29.048152,93.24117 28.823256,91.447885 29.347967,84.643566 29.885672,77.670748 30.534883,75.687603 34.97788,67.445867 42.147904,54.145507 41.784495,50.600807 32.5,43.27658 25.346518,37.633438 23.370759,34.636167 25.032244,31.947828 c 0.664716,-1.075533 1.286953,-0.811752 2.888759,1.224614 2.868135,3.646243 8.330353,5.549483 18.135233,6.31899 22.906657,1.797762 30.949477,5.562099 30.940026,14.481074 C 76.992378,57.638053 73.809501,64 71.979515,64 71.251404,64 71.2469,63.407181 71.964816,62.065741 75.439424,55.573378 70.068075,48 61.988818,48 56.237975,48 51.02235,55.76683 51.005577,64.355655 c -0.02295,11.753651 10.112507,31.019467 19.934091,37.891375 4.592527,3.21327 1.376315,2.77662 -5.728384,-0.77772 z M 85.841431,81.183998 c -0.836451,-1.194201 -1.779417,-1.912679 -2.095479,-1.596616 -0.316063,0.316062 -1.404133,0.130738 -2.417934,-0.411832 -1.380149,-0.738633 -2.434507,-0.507739 -4.19643,0.91898 -2.848447,2.306532 -6.696245,2.482338 -7.517013,0.343452 -0.543379,-1.416023 -0.807838,-1.416023 -2.829495,0 -4.511421,3.159923 -8.233697,0.937551 -8.116902,-4.846168 0.134616,-6.666223 5.009075,-10.09548 8.452469,-5.946443 1.163739,1.402219 1.133532,1.791716 -0.2044,2.635662 -1.390888,0.877349 -1.333075,1.239537 0.506908,3.175718 L 69.5,77.642179 72.517217,74.850545 c 1.659469,-1.535398 4.117796,-2.917389 5.462949,-3.071089 2.003043,-0.228873 2.542942,0.248627 2.982783,2.638046 C 81.824638,79.098584 84,78.859227 84,74.083333 84,71.8375 84.45,70 85,70 c 0.55,0 1,1.125 1,2.5 0,3.035364 0.406659,3.093341 3.063274,0.436726 1.1348,-1.1348 3.0473,-1.957774 4.25,-1.828829 C 94.515973,71.236841 97.3,70.817824 99.5,70.176748 105.51902,68.422814 115,68.62054 115,70.5 c 0,1.090231 -1.12372,1.5 -4.1135,1.5 -3.93333,0 -4.09317,0.12045 -3.64927,2.75 0.25533,1.5125 0.64391,3.425 0.8635,4.25 0.22188,0.833581 -0.2531,1.5 -1.0691,1.5 -0.9175,0 -1.7687,-1.518663 -2.26892,-4.048063 -0.77714,-3.929724 -0.91683,-4.046657 -4.778453,-4 -2.187853,0.02643 -3.979342,0.357782 -3.981086,0.736327 -0.0017,0.378545 -1.217519,0.603545 -2.701721,0.5 -2.197833,-0.153332 -2.870469,0.368387 -3.625082,2.811736 -2.224935,7.204076 -2.14133,7.101961 -3.834937,4.683998 z M 65.799067,77.781481 c 0.188427,-0.963705 -0.643959,-1.709838 -2.25,-2.016852 -2.61326,-0.499556 -2.973611,-0.03455 -1.979927,2.554952 0.722835,1.883676 3.833791,1.487923 4.229927,-0.5381 z M 76.505548,76.993869 C 79.318689,73.885383 77.281838,73.263616 74.242424,76.30303 72.266889,78.278565 71.966038,79 73.11774,79 c 0.864757,0 2.38927,-0.902759 3.387808,-2.006131 z M 64.5,71 c 0.339919,-0.55 0.168034,-1 -0.381966,-1 -0.55,0 -1.278115,0.45 -1.618034,1 -0.339919,0.55 -0.168034,1 0.381966,1 0.55,0 1.278115,-0.45 1.618034,-1 z m 71.85713,7.831917 -0.6665,-4.168082 -1.84532,2.278866 C 132.83039,78.196078 132,79.846715 132,80.610784 c 0,2.640675 -2.10735,1.376537 -3.57974,-2.147379 -1.41316,-3.382166 -1.57347,-3.469498 -3.67148,-2 C 123.5422,77.308532 121.50356,78 120.21848,78 c -1.30303,0 -2.06315,0.442318 -1.71848,1 0.33992,0.55 2.41803,1 4.61803,1 2.41203,0 3.75465,0.396994 3.38197,1 -0.67968,1.09974 -6.41756,1.3526 -8.91821,0.393011 -2.60712,-1.000444 -1.84163,-4.996584 1.49494,-7.804117 3.55256,-2.989283 5.15786,-3.21145 7.35184,-1.017465 C 127.85714,74 128,73.94918 128,72.012412 c 0,-1.171745 0.45,-1.852331 1,-1.512412 0.55,0.339919 1.00168,2.053976 1.00374,3.809017 l 0.004,3.190983 2.11257,-3.465435 2.11258,-3.465435 2.38369,2.771199 c 1.5138,1.759897 2.38368,4.028113 2.38368,6.215435 0,4.812284 -1.83811,4.308851 -2.64287,-0.723847 z M 123,75 c 0.825,-0.533156 1.05,-0.969374 0.5,-0.969374 -0.55,0 -1.675,0.436218 -2.5,0.969374 -0.825,0.533156 -1.05,0.969374 -0.5,0.969374 0.55,0 1.675,-0.436218 2.5,-0.969374 z m 28.59002,7.145654 c -0.30713,-0.496948 -2.49573,-0.685179 -4.86355,-0.418291 -7.57766,0.854113 -8.67408,-4.282379 -1.78301,-8.353035 1.61098,-0.951628 3.19131,-2.775154 3.51185,-4.052281 1.43965,-5.73602 5.06483,0.517765 4.1609,7.177953 l -0.54289,4 1.57346,-3.099445 c 1.92215,-3.786278 6.6451,-6.760079 9.36517,-5.896762 C 164.14842,71.864495 165,71.677562 165,71.067388 165,70.480324 165.45,70 166,70 c 0.55,0 1,1.138472 1,2.529937 l 0,2.529938 2.87688,-2.126972 c 3.04019,-2.247709 6.16656,-2.306314 6.89149,-0.129183 0.30281,0.909382 -0.4255,1.211854 -2.40783,1 -2.55408,-0.272956 -2.97912,0.12677 -4.19614,3.94628 -1.64375,5.15876 -3.83639,5.515373 -4.72685,0.76878 -0.62155,-3.313147 -0.75519,-3.409707 -2.76782,-2 C 161.50662,77.333451 159.50356,78 158.21848,78 c -1.30303,0 -2.06315,0.442318 -1.71848,1 0.33992,0.55 2.50398,1.013684 4.80902,1.030409 2.79496,0.02028 3.69133,0.309857 2.69098,0.869343 -2.33536,1.306142 -11.78634,2.254974 -12.40998,1.245902 z m -3.76967,-3.429192 c 0.66728,-0.804022 0.72366,-1.831394 0.15091,-2.75 -1.11307,-1.785217 -4.28388,-0.204155 -4.79458,2.390721 -0.39287,1.996184 3.06324,2.263581 4.64367,0.359279 z M 44.690941,36.548084 c -2.538091,-2.538091 -2.991141,-5.440976 -1.261219,-8.08117 3.120653,-4.762719 9.640603,-4.042344 11.667626,1.289131 2.065269,5.43207 -6.30396,10.894486 -10.406407,6.792039 z M 20,27.070152 c -3.065492,-0.612966 -8,-2.698883 -8,-3.381762 0,-0.132683 1.8,-0.06958 4,0.14022 3.663622,0.349382 4,0.17921 4,-2.023575 C 20,20.482266 19.49921,18.89921 18.887132,18.287132 17.419074,16.819074 18.620979,15 21.059017,15 23.126579,15 23.830939,18.368417 22,19.5 c -1.719603,1.062773 -1.092173,4.242634 0.942095,4.774607 2.678616,0.700473 3.053193,0.07112 3.089708,-5.191274 0.01749,-2.520833 0.634898,-5.378076 1.372013,-6.349429 1.239783,-1.633757 1.431076,-1.546724 2.552849,1.161475 0.666951,1.610164 1.062046,4.429908 0.877987,6.266096 -0.333883,3.330849 -0.325455,3.337749 3.665348,3.000869 5.048046,-0.426126 3.781772,1.046965 -2.784947,3.239807 C 26.618521,28.104048 25.491873,28.168291 20,27.070152 z"
       id="path2991"
       inkscape:connector-curvature="0" />
    <path
       style="fill:#000000"
       d="M 65.211284,101.46931 C 55.830982,96.776538 50.052469,90.343375 46.158663,80.258208 l -2.953848,-7.650624 -3.127041,4.930832 C 36.162686,83.711868 34.875,88.426878 34.875,96.588966 34.875,100.11503 34.50854,103 34.060644,103 33.612748,103 32.232413,100.64318 30.993231,97.762629 29.048152,93.24117 28.823256,91.447885 29.347967,84.643566 29.885672,77.670748 30.534883,75.687603 34.97788,67.445867 42.147904,54.145507 41.784495,50.600807 32.5,43.27658 25.346518,37.633438 23.370759,34.636167 25.032244,31.947828 c 0.664716,-1.075533 1.286953,-0.811752 2.888759,1.224614 2.868135,3.646243 8.330353,5.549483 18.135233,6.31899 22.906657,1.797762 30.949477,5.562099 30.940026,14.481074 C 76.992378,57.638053 73.809501,64 71.979515,64 71.251404,64 71.2469,63.407181 71.964816,62.065741 75.439424,55.573378 70.068075,48 61.988818,48 56.237975,48 51.02235,55.76683 51.005577,64.355655 c -0.02295,11.753651 10.112507,31.019467 19.934091,37.891375 4.592527,3.21327 1.376315,2.77662 -5.728384,-0.77772 z M 85.841431,81.183998 c -0.836451,-1.194201 -1.779417,-1.912679 -2.095479,-1.596616 -0.316063,0.316062 -1.404133,0.130738 -2.417934,-0.411832 -1.380149,-0.738633 -2.434507,-0.507739 -4.19643,0.91898 -2.848447,2.306532 -6.696245,2.482338 -7.517013,0.343452 -0.543379,-1.416023 -0.807838,-1.416023 -2.829495,0 -4.511421,3.159923 -8.233697,0.937551 -8.116902,-4.846168 0.134616,-6.666223 5.009075,-10.09548 8.452469,-5.946443 1.163739,1.402219 1.133532,1.791716 -0.2044,2.635662 -1.390888,0.877349 -1.333075,1.239537 0.506908,3.175718 L 69.5,77.642179 72.517217,74.850545 c 1.659469,-1.535398 4.117796,-2.917389 5.462949,-3.071089 2.003043,-0.228873 2.542942,0.248627 2.982783,2.638046 C 81.824638,79.098584 84,78.859227 84,74.083333 84,71.8375 84.45,70 85,70 c 0.55,0 1,1.125 1,2.5 0,3.035364 0.406659,3.093341 3.063274,0.436726 1.1348,-1.1348 3.0473,-1.957774 4.25,-1.828829 C 94.515973,71.236841 97.3,70.817824 99.5,70.176748 105.51902,68.422814 115,68.62054 115,70.5 c 0,1.090231 -1.12372,1.5 -4.1135,1.5 -3.93333,0 -4.09317,0.12045 -3.64927,2.75 0.25533,1.5125 0.64391,3.425 0.8635,4.25 0.22188,0.833581 -0.2531,1.5 -1.0691,1.5 -0.9175,0 -1.7687,-1.518663 -2.26892,-4.048063 -0.77714,-3.929724 -0.91683,-4.046657 -4.778453,-4 -2.187853,0.02643 -3.979342,0.357782 -3.981086,0.736327 -0.0017,0.378545 -1.217519,0.603545 -2.701721,0.5 -2.197833,-0.153332 -2.870469,0.368387 -3.625082,2.811736 -2.224935,7.204076 -2.14133,7.101961 -3.834937,4.683998 z M 65.799067,77.781481 c 0.188427,-0.963705 -0.643959,-1.709838 -2.25,-2.016852 -2.61326,-0.499556 -2.973611,-0.03455 -1.979927,2.554952 0.722835,1.883676 3.833791,1.487923 4.229927,-0.5381 z M 76.505548,76.993869 C 79.318689,73.885383 77.281838,73.263616 74.242424,76.30303 72.266889,78.278565 71.966038,79 73.11774,79 c 0.864757,0 2.38927,-0.902759 3.387808,-2.006131 z M 64.5,71 c 0.339919,-0.55 0.168034,-1 -0.381966,-1 -0.55,0 -1.278115,0.45 -1.618034,1 -0.339919,0.55 -0.168034,1 0.381966,1 0.55,0 1.278115,-0.45 1.618034,-1 z m 71.85713,7.831917 -0.6665,-4.168082 -1.84532,2.278866 C 132.83039,78.196078 132,79.846715 132,80.610784 c 0,2.640675 -2.10735,1.376537 -3.57974,-2.147379 -1.41316,-3.382166 -1.57347,-3.469498 -3.67148,-2 C 123.5422,77.308532 121.50356,78 120.21848,78 c -1.30303,0 -2.06315,0.442318 -1.71848,1 0.33992,0.55 2.41803,1 4.61803,1 2.41203,0 3.75465,0.396994 3.38197,1 -0.67968,1.09974 -6.41756,1.3526 -8.91821,0.393011 -2.60712,-1.000444 -1.84163,-4.996584 1.49494,-7.804117 3.55256,-2.989283 5.15786,-3.21145 7.35184,-1.017465 C 127.85714,74 128,73.94918 128,72.012412 c 0,-1.171745 0.45,-1.852331 1,-1.512412 0.55,0.339919 1.00168,2.053976 1.00374,3.809017 l 0.004,3.190983 2.11257,-3.465435 2.11258,-3.465435 2.38369,2.771199 c 1.5138,1.759897 2.38368,4.028113 2.38368,6.215435 0,4.812284 -1.83811,4.308851 -2.64287,-0.723847 z M 123,75 c 0.825,-0.533156 1.05,-0.969374 0.5,-0.969374 -0.55,0 -1.675,0.436218 -2.5,0.969374 -0.825,0.533156 -1.05,0.969374 -0.5,0.969374 0.55,0 1.675,-0.436218 2.5,-0.969374 z m 28.59002,7.145654 c -0.30713,-0.496948 -2.49573,-0.685179 -4.86355,-0.418291 -7.57766,0.854113 -8.67408,-4.282379 -1.78301,-8.353035 1.61098,-0.951628 3.19131,-2.775154 3.51185,-4.052281 1.43965,-5.73602 5.06483,0.517765 4.1609,7.177953 l -0.54289,4 1.57346,-3.099445 c 1.92215,-3.786278 6.6451,-6.760079 9.36517,-5.896762 C 164.14842,71.864495 165,71.677562 165,71.067388 165,70.480324 165.45,70 166,70 c 0.55,0 1,1.138472 1,2.529937 l 0,2.529938 2.87688,-2.126972 c 3.04019,-2.247709 6.16656,-2.306314 6.89149,-0.129183 0.30281,0.909382 -0.4255,1.211854 -2.40783,1 -2.55408,-0.272956 -2.97912,0.12677 -4.19614,3.94628 -1.64375,5.15876 -3.83639,5.515373 -4.72685,0.76878 -0.62155,-3.313147 -0.75519,-3.409707 -2.76782,-2 C 161.50662,77.333451 159.50356,78 158.21848,78 c -1.30303,0 -2.06315,0.442318 -1.71848,1 0.33992,0.55 2.50398,1.013684 4.80902,1.030409 2.79496,0.02028 3.69133,0.309857 2.69098,0.869343 -2.33536,1.306142 -11.78634,2.254974 -12.40998,1.245902 z m -3.76967,-3.429192 c 0.66728,-0.804022 0.72366,-1.831394 0.15091,-2.75 -1.11307,-1.785217 -4.28388,-0.204155 -4.79458,2.390721 -0.39287,1.996184 3.06324,2.263581 4.64367,0.359279 z M 44.690941,36.548084 c -2.538091,-2.538091 -2.991141,-5.440976 -1.261219,-8.08117 3.120653,-4.762719 9.640603,-4.042344 11.667626,1.289131 2.065269,5.43207 -6.30396,10.894486 -10.406407,6.792039 z"
       id="path2989"
       inkscape:connector-curvature="0" />
  </g>
</svg>
